<svg width="240" height="119" viewBox="0 0 240 119" fill="none" xmlns="http://www.w3.org/2000/svg">
<path d="M62.6084 59.4C63.7084 59.4 64.6251 59.7833 65.3584 60.55C66.1251 61.2833 66.5084 62.2 66.5084 63.3C66.5084 64.4 66.1251 65.3333 65.3584 66.1C64.5917 66.8333 63.6751 67.2 62.6084 67.2C61.5417 67.2 60.6251 66.8167 59.8584 66.05C59.0917 65.2833 58.7084 64.3667 58.7084 63.3C58.7084 62.2333 59.0751 61.3167 59.8084 60.55C60.5751 59.7833 61.5084 59.4 62.6084 59.4ZM79.9584 60V76.55H82.5084V83H79.8584C79.4917 86.8667 77.8917 89.8667 75.0584 92C72.3917 93.9667 69.0251 94.95 64.9584 94.95H60.5584C55.8251 94.95 52.0917 93.65 49.3584 91.05C46.8251 88.6167 45.5584 85.3 45.5584 81.1V73.45L49.4584 70.35H53.2584V80.15C53.2584 83.2167 53.9751 85.3667 55.4084 86.6C56.8417 87.8667 59.2917 88.5 62.7584 88.5C66.2251 88.5 68.6584 87.9 70.0584 86.7C71.5251 85.4 72.2584 83.2167 72.2584 80.15V60H79.9584ZM140.244 60V74.65C140.244 74.9833 140.261 75.5333 140.294 76.3V76.55H142.794V83H140.894L139.044 80.65H138.894C137.661 82.2167 136.044 83 134.044 83H122.544L120.694 80.65H120.544C119.311 82.2167 117.694 83 115.694 83H104.194L102.344 80.65H102.194C100.961 82.2167 99.3439 83 97.3439 83H82.3439V76.55H95.1439C95.6106 76.55 95.8439 76.3167 95.8439 75.85V65.75H103.544V74.7C103.544 75.0333 103.561 75.5333 103.594 76.2V76.55H113.494C113.961 76.55 114.194 76.3167 114.194 75.85V62.85H121.894V74.45C121.894 75.0167 121.911 75.7167 121.944 76.55H131.844C132.311 76.55 132.544 76.3167 132.544 75.85V60H140.244ZM149.053 60.85C152.219 59.8833 155.136 59.4 157.803 59.4C161.769 59.4 165.119 60.65 167.853 63.15C170.386 65.4833 171.653 68.3333 171.653 71.7V76.1C171.653 76.2333 171.669 76.3833 171.703 76.55H173.253V83H172.253L170.403 80.7H170.253C169.019 82.2333 167.403 83 165.403 83H142.403V76.55H163.203C163.669 76.55 163.903 76.3167 163.903 75.85V72.55C163.903 70.65 163.136 69.0833 161.603 67.85C160.103 66.5833 158.219 65.95 155.953 65.95C154.086 65.95 151.786 66.3 149.053 67V60.85ZM189.571 47.2V76.8C189.571 78.2667 189.105 79.5833 188.171 80.75C186.905 82.25 185.288 83 183.321 83H172.871V76.55H181.121C181.321 76.55 181.488 76.5 181.621 76.4C181.788 76.2667 181.871 76.0833 181.871 75.85V47.2H189.571ZM204.192 47.2V81.1L200.292 84.25H196.492V47.2H204.192Z" fill="white"/>
<path d="M9.42092 2.64487C9.06836 2.64972 8.71682 2.68402 8.36997 2.74741C6.73153 2.8371 5.27616 3.47557 4.21276 4.58026C2.89247 5.95155 2.26178 7.96678 2.58922 10.1302C2.59087 10.1417 2.59606 10.1528 2.5977 10.1644C2.6945 11.9442 3.48665 13.8389 5.26782 15.6203L17.0429 27.3952C21.1793 27.7682 24.2895 31.0356 24.4128 35.2565L24.4343 36.0256C24.5437 36.8185 25.0167 37.447 25.6475 37.7728C26.4315 38.1782 27.3411 38.2032 28.3306 37.2134L37.1402 28.4077C38.1957 27.3525 38.0788 26.6696 37.6188 25.9256C37.1587 25.1816 36.0818 24.5456 35.0512 24.5456H34.9958C30.8772 24.3684 27.6913 21.3349 27.2712 17.2995L15.432 5.46059C13.3426 3.37057 11.2714 2.62272 9.42092 2.64487ZM8.8869 5.22106C9.63065 5.22516 10.4582 5.41069 11.3437 5.8322L24.0542 18.5427L22.2468 20.3501L7.38299 5.48589C7.83198 5.31499 8.33551 5.21805 8.8869 5.22106ZM5.24253 7.72069L20.0637 22.5373L18.2562 24.3447L5.89618 11.9843C5.46483 11.1856 5.21723 10.4303 5.11415 9.74973C4.99793 8.98137 5.0559 8.30393 5.24253 7.72069ZM61.9639 23.1996L62.2157 25.7416L57.4862 23.3066C55.9207 23.6708 54.4855 24.3676 53.4656 25.306C52.4814 26.2118 51.8556 27.2944 51.731 28.6685L66.9838 26.8184C66.4719 25.5458 65.5553 24.6525 64.3519 24.0116C63.641 23.6328 62.8285 23.3623 61.9639 23.1996ZM62.7284 29.9073L56.8026 30.6291C56.969 32.413 57.2099 34.1892 57.5245 35.953L63.0018 31.9581C62.9215 31.2731 62.8303 30.5894 62.7284 29.9073ZM36.9911 32.1717L31.9582 37.1962L34.2311 39.4691L39.2642 34.4447L36.9911 32.1717ZM63.2753 34.9188L58.0843 38.7087C58.4025 40.119 58.773 41.517 59.1952 42.8998L63.4075 39.8281C63.4315 38.2009 63.3864 36.5604 63.2753 34.9188ZM39.4906 37.8282L37.7474 39.5716L53.1026 54.9269L53.5555 55.3799L53.4612 56.0122L52.8675 60.1094L62.848 66.4925L66.4154 62.925L60.0326 52.9486L55.931 53.5427L55.2987 53.6367L54.8456 53.1838L39.4906 37.8282ZM63.2668 43.0926L60.0453 45.4424C60.6736 47.1811 61.3821 48.8624 62.1773 50.4668C62.7214 48.0887 63.0815 45.6152 63.2668 43.0926ZM18.6623 43.6777C17.6621 43.7018 16.7257 44.0254 15.8295 44.5664C14.8339 45.168 13.9179 46.0678 13.1722 47.1342L13.6165 52.2185L11.3566 51.5306C11.1754 52.5908 11.1697 53.6371 11.3648 54.5726C11.6386 55.8834 12.2417 56.9826 13.3602 57.7941L19.5891 43.7462C19.3436 43.7074 19.101 43.6815 18.8631 43.6779C18.7957 43.6765 18.729 43.6759 18.6623 43.6777ZM20.0637 48.9799L17.6454 54.4402C19.2604 55.2104 20.9067 55.9131 22.5801 56.5465L21.9564 49.796C21.3298 49.514 20.6988 49.242 20.0637 48.9799ZM24.6437 51.0778L25.2376 57.4822C26.611 57.9309 28.0006 58.3285 29.4035 58.6741L28.9249 53.4829C27.5314 52.6229 26.1032 51.8205 24.6437 51.0778ZM31.6592 55.2778L32.0266 59.2467C33.8394 59.5978 35.6437 59.8506 37.4269 59.99C35.6644 58.3054 33.7288 56.729 31.6592 55.2778Z" fill="white"/>
</svg>
