<svg width="70" height="70" viewBox="0 0 70 70" fill="none" xmlns="http://www.w3.org/2000/svg">
<path d="M9.42074 2.64469C9.06818 2.64954 8.71664 2.68384 8.36978 2.74723C6.73135 2.83691 5.27597 3.47539 4.21258 4.58008C2.89228 5.95137 2.2616 7.9666 2.58904 10.13C2.59068 10.1415 2.59588 10.1526 2.59752 10.1642C2.69431 11.944 3.48646 13.8387 5.26763 15.6201L17.0427 27.395C21.1791 27.768 24.2893 31.0354 24.4126 35.2563L24.4341 36.0254C24.5435 36.8184 25.0165 37.4469 25.6473 37.7727C26.4313 38.178 27.3409 38.203 28.3304 37.2132L37.1401 28.4076C38.1955 27.3524 38.0786 26.6695 37.6186 25.9254C37.1585 25.1814 36.0816 24.5454 35.051 24.5454H34.9956C30.877 24.3682 27.6912 21.3347 27.271 17.2993L15.4319 5.46041C13.3424 3.37039 11.2712 2.62254 9.42074 2.64469ZM8.88672 5.22088C9.63047 5.22498 10.458 5.41051 11.3436 5.83201L24.054 18.5425L22.2466 20.3499L7.38281 5.4857C7.8318 5.3148 8.33533 5.21787 8.88672 5.22088ZM5.24234 7.72051L20.0635 22.5371L18.2561 24.3446L5.89599 11.9841C5.46465 11.1854 5.21705 10.4301 5.11396 9.74955C4.99775 8.98119 5.05572 8.30375 5.24234 7.72051ZM61.9637 23.1994L62.2155 25.7414L57.486 23.3064C55.9206 23.6707 54.4853 24.3674 53.4654 25.3058C52.4813 26.2116 51.8554 27.2943 51.7308 28.6683L66.9836 26.8182C66.4717 25.5456 65.5551 24.6523 64.3517 24.0114C63.6408 23.6327 62.8283 23.3621 61.9637 23.1994ZM62.7282 29.9071L56.8024 30.629C56.9689 32.4128 57.2097 34.189 57.5243 35.9528L63.0016 31.9579C62.9213 31.2729 62.8301 30.5892 62.7282 29.9071ZM36.9909 32.1716L31.958 37.196L34.231 39.4689L39.264 34.4445L36.9909 32.1716ZM63.2751 34.9187L58.0841 38.7085C58.4023 40.1188 58.7728 41.5168 59.195 42.8996L63.4073 39.8279C63.4313 38.2007 63.3862 36.5602 63.2751 34.9187ZM39.4904 37.828L37.7472 39.5715L53.1024 54.9268L53.5553 55.3797L53.461 56.012L52.8674 60.1092L62.8478 66.4923L66.4152 62.9248L60.0324 52.9484L55.9308 53.5425L55.2985 53.6365L54.8454 53.1836L39.4904 37.828ZM63.2666 43.0924L60.0451 45.4422C60.6735 47.181 61.3819 48.8622 62.1771 50.4666C62.7212 48.0885 63.0813 45.615 63.2666 43.0924ZM18.6621 43.6775C17.6619 43.7016 16.7255 44.0252 15.8293 44.5662C14.8337 45.1678 13.9177 46.0677 13.172 47.1341L13.6164 52.2184L11.3564 51.5304C11.1753 52.5906 11.1695 53.637 11.3646 54.5724C11.6385 55.8832 12.2415 56.9825 13.36 57.7939L19.5889 43.746C19.3434 43.7072 19.1008 43.6814 18.8629 43.6777C18.7955 43.6763 18.7288 43.6758 18.6621 43.6775ZM20.0635 48.9798L17.6452 54.44C19.2602 55.2102 20.9065 55.9129 22.5799 56.5463L21.9562 49.7958C21.3296 49.5138 20.6986 49.2419 20.0635 48.9798ZM24.6436 51.0776L25.2375 57.482C26.6108 57.9307 28.0004 58.3283 29.4033 58.6739L28.9248 53.4827C27.5313 52.6227 26.103 51.8203 24.6436 51.0776ZM31.659 55.2776L32.0264 59.2465C33.8393 59.5976 35.6435 59.8504 37.4268 59.9899C35.6642 58.3052 33.7286 56.7288 31.659 55.2776Z" fill="white"/>
</svg>
